<svg width="53" height="53" viewBox="0 0 53 53" fill="none" xmlns="http://www.w3.org/2000/svg">
<rect x="0.5" y="0.5" width="52" height="52" rx="11.5" fill="#FFFEFE"/>
<rect x="0.5" y="0.5" width="52" height="52" rx="11.5" stroke="#D1C7B3"/>
<path fill-rule="evenodd" clip-rule="evenodd" d="M33.9328 11.7187C33.9966 11.7187 34.0612 11.7188 34.1267 11.7188L34.9798 11.7188C36.1782 11.7187 37.1802 11.7187 37.9762 11.8254C38.8172 11.9381 39.5811 12.1866 40.1959 12.7995C40.811 13.4129 41.0609 14.1758 41.1742 15.0157C41.2813 15.81 41.2812 16.8094 41.2812 18.0038V18.8549C41.2812 18.9205 41.2812 18.9852 41.2812 19.049C41.282 20.4928 41.2825 21.5061 40.8973 22.4332C40.5123 23.36 39.7937 24.0757 38.7692 25.0961C38.7239 25.1412 38.678 25.1869 38.6315 25.2333L34.9606 28.8932L35.0885 29.0908C35.6298 29.9268 36.0683 30.604 36.3849 31.1879C36.7128 31.7928 36.9457 32.3602 37.039 32.9879C37.189 33.9968 37.0534 35.034 36.6557 35.9868C36.5082 36.3402 36.253 36.7105 35.9912 37.0481C35.717 37.4017 35.3817 37.787 35.0216 38.1793C34.3049 38.9603 33.4445 39.8181 32.6808 40.5795L32.5556 40.7044C31.5657 41.6913 29.8498 41.3713 29.3219 40.047C29.0089 39.2618 28.8822 38.9488 28.7237 38.6598C28.5767 38.3918 28.408 38.1361 28.2193 37.8954C28.0185 37.6391 27.7837 37.4019 27.2017 36.8215L26.5076 36.2129C26.4979 36.2044 26.4883 36.1957 26.4789 36.1868C26.3504 36.2036 26.22 36.2121 26.0872 36.2121C25.219 36.2121 24.5026 35.8496 23.8273 35.336C23.1886 34.8501 22.48 34.1435 21.6327 33.2987L19.6436 31.3156C18.7964 30.471 18.0877 29.7645 17.6003 29.1276C17.0851 28.4544 16.7204 27.7387 16.7204 26.8702C16.7204 26.7126 16.7325 26.5584 16.756 26.4071L15.6141 25.2687C15.5476 25.2023 15.5209 25.1758 15.4946 25.1503C14.9808 24.6517 14.3763 24.2552 13.7133 23.9821C13.6794 23.9681 13.6443 23.9542 13.5569 23.9195L13.0362 23.7132C11.6426 23.161 11.2674 21.3624 12.3314 20.3016L12.3411 20.292C13.1048 19.5306 13.9652 18.6728 14.7485 17.9583C15.142 17.5992 15.5284 17.265 15.883 16.9917C16.2217 16.7306 16.5927 16.4765 16.9464 16.3298C17.901 15.9337 18.9396 15.7988 19.9498 15.9481C20.5781 16.0409 21.1462 16.2727 21.7528 16.5995C22.3383 16.9151 23.0174 17.3522 23.856 17.8919L24.0591 18.0226L27.7335 14.3592C27.7798 14.3131 27.8254 14.2675 27.8705 14.2225C28.8946 13.2004 29.6121 12.4844 30.5408 12.1008C31.4692 11.7175 32.4838 11.718 33.9328 11.7187ZM22.564 19.5132C21.794 19.018 21.2398 18.666 20.7744 18.4152C20.2807 18.1492 19.95 18.033 19.6483 17.9884C19.0184 17.8953 18.3565 17.9777 17.7368 18.2348C17.6443 18.2732 17.4494 18.3884 17.1421 18.6252C16.8509 18.8497 16.5113 19.1418 16.1385 19.482C15.3922 20.1628 14.5618 20.9904 13.7876 21.7623C13.7832 21.7666 13.7818 21.769 13.7817 21.7692C13.7816 21.7695 13.7817 21.7692 13.7817 21.7692C13.7816 21.7697 13.7806 21.7738 13.7819 21.78C13.7832 21.7863 13.7855 21.7897 13.7862 21.7905C13.7865 21.7907 13.7899 21.7933 13.796 21.7958L14.3236 22.0048C14.402 22.0359 14.4506 22.0552 14.499 22.0751C15.4037 22.4478 16.229 22.9891 16.9308 23.67C16.9684 23.7065 17.0054 23.7433 17.0651 23.8029L17.722 24.4578C17.8119 24.3461 17.9058 24.2352 18.0027 24.1246C18.4452 23.6196 19.0136 23.0529 19.6716 22.3969L22.564 19.5132ZM28.4999 35.2168L28.6111 35.3142L28.682 35.3849C29.2191 35.9204 29.5521 36.2523 29.8427 36.6231C30.1005 36.9521 30.3311 37.3015 30.532 37.6679C30.7515 38.0681 30.9216 38.4902 31.1872 39.1563L31.2149 39.1286C31.9891 38.3567 32.8192 37.5288 33.5021 36.7848C33.8432 36.413 34.1362 36.0745 34.3613 35.7842C34.5989 35.4778 34.7141 35.2839 34.7523 35.1924C35.0097 34.5757 35.0921 33.9175 34.999 33.2912C34.9545 32.9918 34.8384 32.6629 34.5716 32.1709C34.3197 31.7061 33.9657 31.1522 33.4674 30.3819L30.568 33.2725C29.8944 33.9442 29.3142 34.5227 28.7973 34.969C28.6987 35.0543 28.5996 35.1371 28.4999 35.2168ZM34.1267 13.7813C32.4053 13.7813 31.8312 13.7994 31.3281 14.0072C30.8253 14.2148 30.4069 14.6063 29.1897 15.8198L21.1503 23.8351C20.4649 24.5184 19.9454 25.0371 19.554 25.4838C19.1607 25.9326 18.96 26.2398 18.8624 26.4825C18.8054 26.6241 18.7829 26.7462 18.7829 26.8702C18.7829 27.1045 18.8632 27.3841 19.2382 27.8741C19.6313 28.3878 20.2394 28.9972 21.1503 29.9053L21.3663 30.1207L23.4708 28.0226C23.8741 27.6205 24.5271 27.6215 24.9292 28.0248C25.3313 28.4281 25.3303 29.0811 24.927 29.4832L22.8269 31.5769L23.0386 31.788C23.9494 32.6961 24.5607 33.3024 25.076 33.6944C25.5675 34.0683 25.8493 34.1496 26.0872 34.1496C26.2038 34.1496 26.3173 34.13 26.4443 34.0832C26.6855 33.9943 26.993 33.8021 27.4492 33.4081C27.9038 33.0155 28.4328 32.489 29.1358 31.788L37.1753 23.7727C38.3928 22.5588 38.7849 22.1421 38.9927 21.6419C39.2003 21.1421 39.2187 20.5717 39.2187 18.8549V18.0751C39.2187 16.7907 39.2165 15.9315 39.1302 15.2914C39.0479 14.6812 38.9066 14.4266 38.7396 14.2601C38.5722 14.0932 38.3156 13.9518 37.7021 13.8696C37.0594 13.7834 36.1968 13.7813 34.9088 13.7813H34.1267ZM32.9126 20.0697C32.2721 19.4312 31.2325 19.4312 30.5921 20.0697C29.9533 20.7065 29.9533 21.7377 30.5921 22.3745C31.2325 23.013 32.2721 23.013 32.9126 22.3745C33.5513 21.7377 33.5513 20.7065 32.9126 20.0697ZM29.1358 18.6091C30.5812 17.1681 32.9234 17.1681 34.3688 18.6091C35.8159 20.0519 35.8159 22.3924 34.3688 23.8351C32.9234 25.2762 30.5812 25.2762 29.1358 23.8351C27.6887 22.3924 27.6887 20.0519 29.1358 18.6091Z" fill="#332A1B"/>
<path d="M10.95 11.2C10.015 11.2 9.3 10.485 9.3 9.54998C9.3 9.21998 9.08002 9 8.75002 9C8.41996 9 8.19998 9.21998 8.19998 9.54998C8.19998 10.485 7.485 11.2 6.54998 11.2C6.21998 11.2 6 11.42 6 11.75C6 12.08 6.21998 12.3 6.54998 12.3C7.485 12.3 8.19998 13.015 8.19998 13.95C8.19998 14.28 8.41996 14.5 8.74996 14.5C9.07996 14.5 9.29994 14.28 9.29994 13.95C9.29994 13.015 10.0149 12.3 10.9499 12.3C11.2799 12.3 11.4999 12.08 11.4999 11.75C11.4999 11.42 11.28 11.2 10.95 11.2ZM8.74996 12.3C8.58496 12.08 8.41996 11.915 8.19998 11.75C8.41996 11.585 8.58496 11.42 8.74996 11.2C8.91496 11.42 9.07996 11.585 9.29994 11.75C9.07996 11.915 8.91496 12.08 8.74996 12.3Z" fill="#332A1B"/>
<path d="M47.6899 40.499C47.1466 40.2684 46.9075 39.6766 47.1381 39.1334C47.2195 38.9417 47.146 38.7596 46.9542 38.6782C46.7625 38.5968 46.5804 38.6704 46.499 38.8621C46.2684 39.4054 45.6767 39.6444 45.1334 39.4138C44.9417 39.3325 44.7596 39.406 44.6782 39.5977C44.5969 39.7895 44.6704 39.9716 44.8621 40.053C45.4054 40.2836 45.6445 40.8753 45.4139 41.4185C45.3325 41.6103 45.406 41.7923 45.5978 41.8737C45.7895 41.9551 45.9716 41.8816 46.0529 41.6898C46.2835 41.1466 46.8753 40.9075 47.4185 41.1381C47.6103 41.2195 47.7923 41.1459 47.8737 40.9542C47.9551 40.7625 47.8816 40.5804 47.6899 40.499ZM46.1403 40.5955C46.0987 40.427 46.0435 40.2905 45.9564 40.1403C46.1249 40.0987 46.2615 40.0436 46.4116 39.9564C46.4532 40.1249 46.5084 40.2615 46.5955 40.4116C46.427 40.4532 46.2905 40.5084 46.1403 40.5955Z" fill="#332A1B"/>
</svg>
