<svg width="53" height="53" viewBox="0 0 53 53" fill="none" xmlns="http://www.w3.org/2000/svg">
<rect x="0.5" y="0.5" width="52" height="52" rx="11.5" fill="#FFFEFE"/>
<rect x="0.5" y="0.5" width="52" height="52" rx="11.5" stroke="#D1C7B3"/>
<path d="M30.2289 21.0788C34.2648 16.1038 28.0694 16.7829 27.1703 16.3329C26.8543 16.175 26.5434 14.6506 25.8403 15.0026C24.7575 15.5443 24.8495 18.3641 24.732 19.3047C24.6682 19.8167 23.9534 20.5498 23.7184 21.0788C23.3433 21.923 22.9313 22.9271 22.2423 23.9756C21.5534 25.0243 20.1137 25.8373 19.3931 26.6387C16.3261 30.0476 17.6411 34.0553 21.0083 36.6468C24.4139 39.268 38.6382 38.2897 34.6178 32.2559" stroke="#332A1B" stroke-width="2.4" stroke-linecap="round" stroke-linejoin="round"/>
<path d="M28.6369 23.3883C29.6364 27.0467 28.2017 30.8672 28.2017 34.4494C28.2017 34.8617 29.0197 34.4639 29.4205 34.5376" stroke="#332A1B" stroke-width="2.4" stroke-linecap="round" stroke-linejoin="round"/>
<path d="M23.4199 27.2325C24.2245 27.351 24.9587 27.9416 25.5282 28.4937C28.3629 31.2422 24.7417 33.0893 24.5411 34.0609C24.4958 34.2807 25.4303 34.432 25.618 34.4521" stroke="#332A1B" stroke-width="2.4" stroke-linecap="round" stroke-linejoin="round"/>
<path d="M27.4517 15.197C27.9982 14.6843 28.1025 15.5817 28.2017 16.0751" stroke="#332A1B" stroke-width="2.4" stroke-linecap="round" stroke-linejoin="round"/>
<path d="M10.95 11.2C10.015 11.2 9.3 10.485 9.3 9.54998C9.3 9.21998 9.08002 9 8.75002 9C8.41996 9 8.19998 9.21998 8.19998 9.54998C8.19998 10.485 7.485 11.2 6.54998 11.2C6.21998 11.2 6 11.42 6 11.75C6 12.08 6.21998 12.3 6.54998 12.3C7.485 12.3 8.19998 13.015 8.19998 13.95C8.19998 14.28 8.41996 14.5 8.74996 14.5C9.07996 14.5 9.29994 14.28 9.29994 13.95C9.29994 13.015 10.0149 12.3 10.9499 12.3C11.2799 12.3 11.4999 12.08 11.4999 11.75C11.4999 11.42 11.28 11.2 10.95 11.2ZM8.74996 12.3C8.58496 12.08 8.41996 11.915 8.19998 11.75C8.41996 11.585 8.58496 11.42 8.74996 11.2C8.91496 11.42 9.07996 11.585 9.29994 11.75C9.07996 11.915 8.91496 12.08 8.74996 12.3Z" fill="#332A1B"/>
<path d="M47.6899 40.499C47.1466 40.2684 46.9075 39.6766 47.1381 39.1334C47.2195 38.9417 47.146 38.7596 46.9542 38.6782C46.7625 38.5968 46.5804 38.6704 46.499 38.8621C46.2684 39.4054 45.6767 39.6444 45.1334 39.4138C44.9417 39.3325 44.7596 39.406 44.6782 39.5977C44.5969 39.7895 44.6704 39.9716 44.8621 40.053C45.4054 40.2836 45.6445 40.8753 45.4139 41.4185C45.3325 41.6103 45.406 41.7923 45.5978 41.8737C45.7895 41.9551 45.9716 41.8816 46.0529 41.6898C46.2835 41.1466 46.8753 40.9075 47.4185 41.1381C47.6103 41.2195 47.7923 41.1459 47.8737 40.9542C47.9551 40.7625 47.8816 40.5804 47.6899 40.499ZM46.1403 40.5955C46.0987 40.427 46.0435 40.2905 45.9564 40.1403C46.1249 40.0987 46.2615 40.0436 46.4116 39.9564C46.4532 40.1249 46.5084 40.2615 46.5955 40.4116C46.427 40.4532 46.2905 40.5084 46.1403 40.5955Z" fill="#332A1B"/>
</svg>
